<?xml version="1.0" encoding="UTF-8" standalone="no"?>
<svg
   xmlns:svg="http://www.w3.org/2000/svg"
   xmlns="http://www.w3.org/2000/svg"
   width="747"
   height="151"
   id="svg2"
   version="1.1">
  <defs
     id="defs4">
    <clipPath
       clipPathUnits="userSpaceOnUse"
       id="clipPath17718">
      <path
         id="path17720"
         d="m -971.0049,83.772646 v 35 h -35 v 35 h -35 v 70 h 520 110 v -35 h 35 v -35 h 35 V 83.772646 h -120 -481 z"
         style="fill:#59cfe6" />
    </clipPath>
  </defs>
  <path
     style="fill:#59cfe6"
     d="M 74.89312,0.72468 V 38.05802 H 37.559787 V 75.39135 H 0.226453 v 74.66667 H 672.22644 v -37.33334 h 37.33334 V 75.39135 h 37.33333 V 0.72468 Z"
     id="path6633" />
  <path
     style="fill:#59cfe6;stroke:#ffffff;stroke-width:5;stroke-linecap:round"
     d="m -1021.0049,198.77265 h 590 v -35 h 30 v -30 h 65.51104"
     id="path6635"
     transform="matrix(1.0666667,0,0,1.0666667,1110.6317,-88.63281)"
     clip-path="url(#clipPath17718)" />
  <g
     style="font-family:Anke;fill:#ffffff;stroke:#ffffff;stroke-width:2.13333344"
     id="text5554">
    <path
       id="path3114"
       d="m 110.6188,103.1806 c 3.4932,0 6.9165,-0.6987 10.0604,-2.026 3.1439,-1.3275 5.8686,-3.2138 8.2438,-5.5891 2.3754,-2.3754 4.2618,-5.1001 5.5891,-8.2439 1.3274,-3.1439 2.0261,-6.5671 2.0261,-10.0604 0,-3.4931 -0.6987,-6.9164 -2.0261,-10.0602 -1.3273,-3.1439 -3.2137,-5.8686 -5.5891,-8.244 -2.3752,-2.3753 -5.1,-4.2616 -8.2438,-5.589 -3.1439,-1.3274 -6.5672,-2.0261 -10.0604,-2.0261 -3.4931,0 -6.9165,0.6987 -10.0603,2.0261 -3.1438,1.3274 -5.8685,3.2137 -8.2439,5.589 -2.3754,2.3754 -4.2617,5.1001 -5.589,8.244 -1.3275,3.1438 -2.026,6.5671 -2.026,10.0602 0,3.4933 0.6985,6.9165 2.026,10.0604 1.3273,3.1438 3.2136,5.8685 5.589,8.2439 2.3754,2.3753 5.1001,4.2616 8.2439,5.5891 3.1438,1.3273 6.5672,2.026 10.0603,2.026 m 0,-45.5509 c 5.2398,0 10.2001,2.026 13.9028,5.7287 3.7029,3.7028 5.7289,8.6631 5.7289,13.9028 0,5.2398 -2.026,10.2002 -5.7289,13.9029 -3.7027,3.7027 -8.663,5.7288 -13.9028,5.7288 -5.2397,0 -10.2,-2.0261 -13.9028,-5.7288 -3.7027,-3.7027 -5.7288,-8.6631 -5.7288,-13.9029 0,-5.2397 2.0261,-10.2 5.7288,-13.9028 3.7028,-3.7027 8.6631,-5.7287 13.9028,-5.7287" />
    <path
       id="path3116"
       d="m 179.9262,103.1806 c 3.0042,0 5.9385,-0.5589 8.6631,-1.7466 2.6548,-1.1178 5.0302,-2.7246 7.0562,-4.7507 2.0261,-2.026 3.6329,-4.4014 4.7507,-7.0562 1.1877,-2.7247 1.7467,-5.659 1.7467,-8.663 V 51.3419 h -6.2878 v 29.6222 c 0,4.2616 -1.6767,8.2438 -4.6809,11.248 -3.004,3.004 -6.9863,4.6808 -11.248,4.6808 -4.2616,0 -8.2438,-1.6768 -11.248,-4.6808 -3.0041,-3.0042 -4.6808,-6.9864 -4.6808,-11.248 V 51.3419 h -6.2877 v 29.6222 c 0,3.004 0.5589,5.9383 1.7466,8.663 1.1178,2.6548 2.7246,5.0302 4.7507,7.0562 2.026,2.0261 4.4014,3.6329 7.0562,4.7507 2.7247,1.1877 5.659,1.7466 8.663,1.7466" />
    <path
       id="path3118"
       d="M 264.2947,51.3419 H 223.215 v 6.2878 h 17.3959 v 45.5509 h 6.2878 V 57.6297 h 17.396 v -6.2878" />
    <path
       id="path3120"
       d="m 318.1229,103.1806 h 7.685 l -14.8111,-20.959 c 3.6329,-0.2795 6.9864,-1.8863 9.5713,-4.4713 2.9343,-2.9343 4.5412,-6.7767 4.5412,-10.9685 0,-4.1219 -1.6069,-7.9645 -4.5412,-10.8988 -2.9342,-2.9342 -6.7767,-4.5411 -10.8986,-4.5411 h -22.4961 v 0 51.8387 h 6.2878 V 82.2914 h 9.8506 l 14.8111,20.8892 M 293.4612,57.6297 h 16.2083 c 5.0301,0 9.1521,4.1219 9.1521,9.1521 0,5.1 -4.122,9.222 -9.1521,9.222 H 293.4612 V 57.6297" />
    <path
       id="path3122"
       d="M 356.9261,96.8929 V 78.5188 H 377.955 V 72.2311 H 356.9261 V 57.6297 h 24.7316 v -6.2878 h -31.0193 v 51.8387 h 3.1438 29.4825 v -6.2877 h -26.3386" />
    <path
       id="path3124"
       d="m 426.5475,51.3419 -23.1947,51.8387 h 6.9165 l 5.3795,-12.0165 h 28.9933 l 5.3795,12.0165 h 6.9165 L 433.6735,51.3419 h -7.126 m -8.1042,33.5345 11.6672,-26.129 11.7371,26.129 h -23.4043" />
    <path
       id="path3126"
       d="m 497.5411,103.1806 c 3.4931,0 6.9164,-0.6987 10.0603,-2.026 3.1438,-1.3275 5.8685,-3.2138 8.2439,-5.5891 l -4.4014,-4.4014 c -3.7027,3.7027 -8.6631,5.7288 -13.9028,5.7288 -5.2398,0 -10.2002,-2.0261 -13.9029,-5.7288 -3.7027,-3.7027 -5.7287,-8.6631 -5.7287,-13.9029 0,-5.2397 2.026,-10.2 5.7287,-13.9028 3.7027,-3.7027 8.6631,-5.7287 13.9029,-5.7287 5.2397,0 10.2001,2.026 13.9028,5.7287 l 4.4014,-4.4014 c -2.3754,-2.3753 -5.1001,-4.2616 -8.2439,-5.589 -3.1439,-1.3274 -6.5672,-2.0261 -10.0603,-2.0261 -3.4932,0 -6.9165,0.6987 -10.0604,2.0261 -3.1438,1.3274 -5.8685,3.2137 -8.2439,5.589 -2.3753,2.3754 -4.2616,5.1001 -5.5891,8.244 -1.3273,3.1438 -2.026,6.5671 -2.026,10.0602 0,3.4933 0.6987,6.9165 2.026,10.0604 1.3275,3.1438 3.2138,5.8685 5.5891,8.2439 2.3754,2.3753 5.1001,4.2616 8.2439,5.5891 3.1439,1.3273 6.5672,2.026 10.0604,2.026" />
    <path
       id="path3128"
       d="M 571.7825,51.5515 V 72.4407 H 543.2783 V 51.5515 h -6.2878 v 51.6291 h 6.2878 V 78.7284 h 28.5042 v 24.6618 h 6.2877 V 51.5515 h -6.2877" />
    <path
       id="path3130"
       d="M 633.5939,51.3419 620.25,69.9256 606.9759,51.3419 h -7.7548 l 17.885,25.0112 v 26.8275 h 6.2876 V 76.3531 l 17.955,-25.0112 h -7.7548" />
  </g>
</svg>
